<svg width="166" height="43" viewBox="0 0 166 43" fill="none" xmlns="http://www.w3.org/2000/svg">
<g clip-path="url(#clip0_163_14195)">
<path fill-rule="evenodd" clip-rule="evenodd" d="M41.0275 0.784353H57.7579C69.478 0.784353 75.8874 7.08848 75.8874 16.1781C75.8874 25.2678 69.1923 31.7112 57.2891 31.7112H50.616V42.3916H41.0275V0.784353ZM79.4034 21.5C79.4034 8.64252 89.6585 0 101.188 0C112.718 0 122.995 8.25401 122.995 21.5C122.995 34.746 113.003 43 101.188 43C89.3728 43 79.4034 34.3355 79.4034 21.5ZM101.188 34.1009C93.863 34.1009 89.2263 28.3832 89.2263 21.5C89.2263 14.6168 93.8118 8.89175 101.188 8.89175C108.564 8.89175 113.15 14.5435 113.15 21.5C113.15 28.4565 108.52 34.1009 101.188 34.1009ZM139.066 19.0663L154.082 0.806343H165.341L148.493 20.5251L166 42.3769H153.775L139.066 23.4206V42.3769H129.477V0.784353H139.066V19.0443V19.0663ZM9.58848 19.0663L24.6268 0.784353H35.8854L19.0378 20.5031L36.5007 42.3769H24.2972L9.58848 23.4206V42.3769H0V0.784353H9.58848V19.0443V19.0663ZM50.6087 9.22895V23.4499H56.3442C63.2371 23.4499 66.0352 20.657 66.0352 16.1855C66.0352 12.6229 63.7645 9.20696 56.8936 9.20696L50.6087 9.22895Z" fill="white"/>
</g>
<defs>
<clipPath id="clip0_163_14195">
<rect width="166" height="43" fill="white"/>
</clipPath>
</defs>
</svg>
