<svg width="487" height="134" viewBox="0 0 487 134" fill="none" xmlns="http://www.w3.org/2000/svg">
<g clip-path="url(#clip0_277_36638)">
<path d="M32.6 33.15C42.17 33.15 49.52 38 52.58 42.44V0H71.58V104.04H52.58V96.27C49.53 100.71 42.18 105.56 32.6 105.56C14.15 105.56 0 89.06 0 69.36C0 49.66 14.15 33.15 32.6 33.15ZM36.62 50.49C26.22 50.49 19.14 58.54 19.14 69.36C19.14 80.18 26.21 88.23 36.62 88.23C47.03 88.23 54.1 80.18 54.1 69.36C54.1 58.54 47.03 50.49 36.62 50.49Z" fill="white"/>
<path d="M113.59 33.1499C131.76 33.1499 147.71 44.7999 147.71 67.2699C147.71 68.9299 147.71 70.8799 147.43 73.7899H95.55C96.66 83.0799 104.84 88.2199 114 88.2199C122.6 88.2199 128.84 84.1999 131.89 79.4799L146.04 90.0199C139.66 99.3099 128.42 105.56 113.86 105.56C93.19 105.56 77.1 91.2699 77.1 69.3599C77.1 48.8299 92.5 33.1499 113.58 33.1499H113.59ZM96.25 60.8899H128.71C127.05 52.7099 120.11 48.8199 113.04 48.8199C105.97 48.8199 98.06 52.4299 96.26 60.8899H96.25Z" fill="white"/>
<path d="M189.6 33.1499C207.77 33.1499 223.72 44.7999 223.72 67.2699C223.72 68.9299 223.72 70.8799 223.44 73.7899H171.56C172.67 83.0799 180.85 88.2199 190.01 88.2199C198.61 88.2199 204.85 84.1999 207.9 79.4799L222.05 90.0199C215.67 99.3099 204.43 105.56 189.87 105.56C169.2 105.56 153.11 91.2699 153.11 69.3599C153.11 48.8299 168.51 33.1499 189.59 33.1499H189.6ZM172.26 60.8899H204.72C203.06 52.7099 196.12 48.8199 189.05 48.8199C181.98 48.8199 174.07 52.4299 172.27 60.8899H172.26Z" fill="white"/>
<path d="M228.72 34.6799H247.72V42.4499C250.91 38.0099 258.26 33.1599 267.83 33.1599C286.28 33.1599 300.43 49.6699 300.43 69.3699C300.43 89.0699 286.28 105.57 267.83 105.57C258.26 105.57 250.91 100.72 247.72 96.2799V133.04H228.72V34.6799ZM263.68 50.4899C253.28 50.4899 246.2 58.5399 246.2 69.3599C246.2 80.1799 253.27 88.2299 263.68 88.2299C274.09 88.2299 281.16 80.1799 281.16 69.3599C281.16 58.5399 274.09 50.4899 263.68 50.4899Z" fill="white"/>
<path d="M305.98 0H324.98V104.04H305.98V0Z" fill="white"/>
<path d="M363.1 33.1499C372.67 33.1499 380.02 37.9999 383.08 42.4399V34.6699H402.08V104.03H383.08V96.2599C380.03 100.7 372.68 105.55 363.1 105.55C344.65 105.55 330.5 89.0399 330.5 69.3499C330.5 49.6599 344.65 33.1399 363.1 33.1399V33.1499ZM367.12 50.4899C356.72 50.4899 349.64 58.5399 349.64 69.3599C349.64 80.1799 356.71 88.2299 367.12 88.2299C377.53 88.2299 384.6 80.1799 384.6 69.3599C384.6 58.5399 377.53 50.4899 367.12 50.4899Z" fill="white"/>
<path d="M422.17 133.03L436.74 100.15L407.61 34.6799H428.42L447.01 79.6199L465.46 34.6799H486.41L442.85 133.03H422.18H422.17Z" fill="white"/>
</g>
<defs>
<clipPath id="clip0_277_36638">
<rect width="486.39" height="133.03" fill="white"/>
</clipPath>
</defs>
</svg>
