<svg width="563" height="94" viewBox="0 0 563 94" fill="none" xmlns="http://www.w3.org/2000/svg">
<path d="M48.3841 68.6488L38.0394 74.2554L34.7882 67.0751C31.34 71.3046 26.2169 74.3538 19.7145 74.3538C7.10383 74.2554 0.50293 63.9275 0.50293 47.7964C0.50293 30.3865 8.28608 20.9439 20.6012 20.9439C26.4139 20.9439 30.9459 23.1079 33.9015 27.1406V1.46851H44.5418V60.8783L48.3841 68.6488ZM33.9015 61.6652V34.321C31.1429 32.0587 27.6947 30.6816 24.0494 30.6816C16.1677 30.6816 11.5373 36.6816 11.5373 47.8947C11.5373 58.7144 15.8722 64.616 23.8524 64.616C27.3991 64.7144 31.0444 63.5341 33.9015 61.6652Z" fill="white"/>
<path d="M100.994 48.7799H66.3151C67.0047 57.7307 73.9997 63.6324 84.9355 63.6324C90.5512 63.6324 96.6595 62.452 100.699 60.2881L97.3492 71.2061C93.9009 73.075 88.0882 74.2553 81.4873 74.2553C65.724 74.2553 55.2808 63.534 55.2808 47.3045C55.2808 30.9766 65.2314 20.9438 80.9947 20.9438C94.098 20.9438 102.275 28.4193 102.275 40.4193C102.275 43.1734 101.783 46.4193 100.994 48.7799ZM66.9062 41.4029H91.9305C91.4379 33.7307 87.7926 30.0914 80.9947 30.0914C73.6056 30.1897 68.4826 34.4193 66.9062 41.4029Z" fill="white"/>
<path d="M126.807 72.9765L106.807 22.2224H118.531L131.536 57.7306L133.014 62.1568H133.408L134.886 57.7306L147.89 22.2224H159.417L139.418 72.9765H126.807Z" fill="white"/>
<path d="M194.096 22.3208H217.052L215.574 30.4848H192.618L184.54 76.1241C182.274 88.911 173.702 93.6323 161.781 93.6323C156.264 93.6323 153.703 92.8454 150.944 92.2553L150.747 83.993C153.506 84.4848 156.757 84.7799 161.289 84.7799C168.481 84.7799 173.21 81.9274 174.294 75.9274L182.372 30.3864H166.412L167.89 22.2225H183.752L184.54 17.5012C186.806 5.00937 195.279 0.189697 207.101 0.189697C212.717 0.189697 215.574 0.976582 218.037 1.56675L218.234 10.0258C215.475 9.33724 212.224 9.04216 207.692 9.04216C200.599 9.04216 195.87 11.8946 194.786 17.8946L194.096 22.3208Z" fill="white"/>
<path d="M264.44 48.7799H229.662C230.352 57.7307 237.347 63.6324 248.283 63.6324C253.898 63.6324 260.007 62.452 264.046 60.2881L260.696 71.2061C257.248 73.075 251.435 74.2553 244.834 74.2553C229.071 74.2553 218.628 63.534 218.628 47.3045C218.628 30.9766 228.579 20.9438 244.342 20.9438C257.445 20.9438 265.622 28.4193 265.622 40.4193C265.721 43.1734 265.228 46.4193 264.44 48.7799ZM230.253 41.4029H255.278C254.785 33.7307 251.14 30.0914 244.342 30.0914C237.051 30.1897 231.928 34.4193 230.253 41.4029Z" fill="white"/>
<path d="M275.869 69.9274L275.179 58.5175C279.711 61.6651 287.987 64.4192 296.558 64.4192C303.159 64.4192 307.888 62.3536 307.888 57.7307C307.888 48.0913 276.263 57.0421 276.263 37.4684C276.263 28.3208 283.159 20.6487 299.514 20.6487C309.563 20.6487 317.149 23.1077 317.149 29.2061C317.149 31.0749 316.361 32.6487 315.573 34.1241C311.238 32.0585 304.44 30.5831 298.824 30.5831C290.943 30.5831 286.805 33.5339 286.805 36.7798C286.805 45.3372 318.824 37.8618 318.824 56.9438C318.824 67.6651 309.366 74.2552 295.376 74.2552C285.819 74.2552 278.726 71.2061 275.869 69.9274Z" fill="white"/>
<path d="M373.503 62.2552L371.335 72.1896C368.774 73.2716 363.651 74.3535 358.922 74.3535C346.212 74.3535 340.892 67.7634 340.892 58.5175V31.1732H326.508V22.2224H340.892V8.35352H351.533V22.2224H372.025V31.1732H351.533V55.1732C351.533 61.7634 354.981 64.7142 360.991 64.7142C364.34 64.7142 370.646 63.9273 373.503 62.2552Z" fill="white"/>
<path d="M425.963 71.0997C436.813 71.0997 442.343 62.8397 442.343 45.7597C442.343 28.6797 436.813 20.4197 425.963 20.4197C415.043 20.4197 409.513 28.6797 409.513 45.7597C409.513 62.8397 415.043 71.0997 425.963 71.0997ZM425.963 65.9197C418.963 65.9197 415.323 59.4097 415.323 45.7597C415.323 32.1097 418.963 25.5297 425.963 25.5297C432.823 25.5297 436.463 32.0397 436.463 45.6897C436.463 59.4097 432.823 65.9197 425.963 65.9197ZM455.061 70.1897V32.1797H455.341L457.231 38.1997L463.881 55.9097H465.631L472.071 38.1997L473.891 32.1797H474.171V70.1897H479.631V21.3297H473.611L466.051 43.1697L465.071 47.0197H464.861L463.811 43.1697L455.901 21.3297H449.881V70.1897H455.061ZM503.059 71.0997C514.959 71.0997 519.719 64.4497 519.719 57.0297C519.719 47.4397 512.649 44.7797 506.069 42.4697C500.749 40.7197 495.639 38.9697 495.639 33.7197C495.639 28.1197 501.029 25.8797 506.699 25.8797C510.199 25.8797 513.699 26.5797 517.059 28.4697C517.549 27.6997 518.109 26.7897 518.109 25.5997C518.109 22.3797 512.369 20.4197 506.279 20.4197C495.499 20.4897 490.039 26.4397 490.039 33.9997C490.039 42.7497 496.969 45.1997 503.409 47.5097C508.869 49.6097 513.979 51.7097 513.979 57.6597C513.979 62.2797 510.409 65.9197 502.779 65.9197C497.529 65.8497 492.699 64.2397 488.359 61.1597L488.849 67.3197C490.949 68.5097 495.499 71.0997 503.059 71.0997ZM540.067 44.9197L558.057 21.3297H551.757L534.397 44.4297V21.3297H528.797V70.1897H534.397V46.2497L553.087 70.1897H559.877L540.067 44.9197Z" fill="#4677BB"/>
</svg>
