<svg width="569" height="94" viewBox="0 0 569 94" fill="none" xmlns="http://www.w3.org/2000/svg">
<path d="M47.8811 68.4586L37.5364 74.0652L34.2853 66.8849C30.837 71.1144 25.7139 74.1636 19.2116 74.1636C6.6009 74.0652 0 63.7373 0 47.6062C0 30.1964 7.78315 20.7537 20.0983 20.7537C25.911 20.7537 30.4429 22.9177 33.3986 26.9505V1.27832H44.0388V60.6882L47.8811 68.4586ZM33.3986 61.475V34.1308C30.64 31.8685 27.1918 30.4914 23.5465 30.4914C15.6648 30.4914 11.0343 36.4914 11.0343 47.7046C11.0343 58.5242 15.3693 64.4259 23.3494 64.4259C26.8962 64.5242 30.5415 63.3439 33.3986 61.475Z" fill="white"/>
<path d="M100.492 48.59H65.8122C66.5018 57.5408 73.4968 63.4424 84.4326 63.4424C90.0483 63.4424 96.1566 62.2621 100.196 60.0982L96.8462 71.0162C93.398 72.8851 87.5853 74.0654 80.9844 74.0654C65.221 74.0654 54.7778 63.3441 54.7778 47.1146C54.7778 30.7867 64.7284 20.7539 80.4918 20.7539C93.5951 20.7539 101.772 28.2293 101.772 40.2293C101.772 42.9834 101.28 46.2293 100.492 48.59ZM66.4033 41.2129H91.4276C90.935 33.5408 87.2897 29.9014 80.4918 29.9014C73.1027 29.9998 67.9796 34.2293 66.4033 41.2129Z" fill="white"/>
<path d="M126.304 72.7873L106.304 22.0332H118.028L131.033 57.5414L132.511 61.9676H132.905L134.383 57.5414L147.387 22.0332H158.914L138.915 72.7873H126.304Z" fill="white"/>
<path d="M193.593 22.1311H216.549L215.071 30.2951H192.116L184.037 75.9344C181.771 88.7213 173.2 93.4426 161.278 93.4426C155.761 93.4426 153.2 92.6557 150.441 92.0656L150.244 83.8033C153.003 84.2951 156.254 84.5902 160.786 84.5902C167.978 84.5902 172.707 81.7377 173.791 75.7377L181.869 30.1967H165.909L167.387 22.0328H183.249L184.037 17.3115C186.303 4.81967 194.776 0 206.598 0C212.214 0 215.071 0.786885 217.534 1.37705L217.731 9.83607C214.972 9.14754 211.721 8.85246 207.189 8.85246C200.096 8.85246 195.367 11.7049 194.283 17.7049L193.593 22.1311Z" fill="white"/>
<path d="M263.937 48.59H229.159C229.849 57.5408 236.844 63.4424 247.78 63.4424C253.395 63.4424 259.504 62.2621 263.543 60.0982L260.193 71.0162C256.745 72.8851 250.932 74.0654 244.332 74.0654C228.568 74.0654 218.125 63.3441 218.125 47.1146C218.125 30.7867 228.076 20.7539 243.839 20.7539C256.942 20.7539 265.119 28.2293 265.119 40.2293C265.218 42.9834 264.725 46.2293 263.937 48.59ZM229.75 41.2129H254.775C254.282 33.5408 250.637 29.9014 243.839 29.9014C236.548 29.9998 231.425 34.2293 229.75 41.2129Z" fill="white"/>
<path d="M275.366 69.7377L274.676 58.3278C279.208 61.4754 287.484 64.2295 296.055 64.2295C302.656 64.2295 307.385 62.1639 307.385 57.541C307.385 47.9016 275.76 56.8524 275.76 37.2787C275.76 28.1311 282.656 20.459 299.011 20.459C309.06 20.459 316.646 22.918 316.646 29.0164C316.646 30.8852 315.858 32.459 315.07 33.9344C310.735 31.8688 303.937 30.3934 298.321 30.3934C290.44 30.3934 286.302 33.3442 286.302 36.5901C286.302 45.1475 318.321 37.6721 318.321 56.7541C318.321 67.4754 308.863 74.0655 294.873 74.0655C285.317 74.0655 278.223 71.0164 275.366 69.7377Z" fill="white"/>
<path d="M373 62.0657L370.832 72.0001C368.271 73.0821 363.148 74.1641 358.419 74.1641C345.71 74.1641 340.389 67.5739 340.389 58.328V30.9837H326.005V22.0329H340.389V8.16406H351.03V22.0329H371.522V30.9837H351.03V54.9837C351.03 61.5739 354.478 64.5247 360.488 64.5247C363.837 64.5247 370.143 63.7378 373 62.0657Z" fill="white"/>
<path d="M432.46 70.91C443.31 70.91 448.84 62.65 448.84 45.57C448.84 28.49 443.31 20.23 432.46 20.23C421.54 20.23 416.01 28.49 416.01 45.57C416.01 62.65 421.54 70.91 432.46 70.91ZM432.46 65.73C425.46 65.73 421.82 59.22 421.82 45.57C421.82 31.92 425.46 25.34 432.46 25.34C439.32 25.34 442.96 31.85 442.96 45.5C442.96 59.22 439.32 65.73 432.46 65.73ZM461.558 70V31.99H461.838L463.728 38.01L470.378 55.72H472.128L478.568 38.01L480.388 31.99H480.668V70H486.128V21.14H480.108L472.548 42.98L471.568 46.83H471.358L470.308 42.98L462.398 21.14H456.378V70H461.558ZM509.556 70.91C521.456 70.91 526.216 64.26 526.216 56.84C526.216 47.25 519.146 44.59 512.566 42.28C507.246 40.53 502.136 38.78 502.136 33.53C502.136 27.93 507.526 25.69 513.196 25.69C516.696 25.69 520.196 26.39 523.556 28.28C524.046 27.51 524.606 26.6 524.606 25.41C524.606 22.19 518.866 20.23 512.776 20.23C501.996 20.3 496.536 26.25 496.536 33.81C496.536 42.56 503.466 45.01 509.906 47.32C515.366 49.42 520.476 51.52 520.476 57.47C520.476 62.09 516.906 65.73 509.276 65.73C504.026 65.66 499.196 64.05 494.856 60.97L495.346 67.13C497.446 68.32 501.996 70.91 509.556 70.91ZM546.564 44.73L564.554 21.14H558.254L540.894 44.24V21.14H535.294V70H540.894V46.06L559.584 70H566.374L546.564 44.73Z" fill="white"/>
</svg>
