<svg width="365" height="60" viewBox="0 0 365 60" fill="none" xmlns="http://www.w3.org/2000/svg">
<g clip-path="url(#clip0_1007_143933)">
<path fill-rule="evenodd" clip-rule="evenodd" d="M26.9975 0L45.8164 10.1413L54 14.8443V45.1625L27.0025 60L8.18362 49.8587L0 45.1557V14.8375L26.9975 0ZM26.4624 1.51738L1.728 15.1111L8.41914 18.1873L26.4624 7.87478V1.51738ZM26.4624 9.10966L9.50378 18.8023L26.4624 29.0488V9.10966ZM26.4624 30.3015L8.98353 19.7407V40.9004L26.4624 50.8903V30.3015ZM26.4624 52.1252L8.98353 42.1352V49.072L26.4624 58.4911V52.1252ZM27.5376 58.4826V52.1252L45.5808 41.8127L52.272 44.8889L27.5376 58.4826ZM52.9247 44.0093L46.0917 40.8679V11.5361L52.9247 15.4629V44.0093ZM45.0164 10.928L27.5376 1.50887V7.87478L45.0164 17.8648V10.928ZM45.0164 19.0996L27.5376 9.10966V29.6985L45.0164 40.2593V19.0996ZM44.4962 41.1977L27.5376 30.9512V50.8903L44.4962 41.1977ZM7.90828 48.4639L1.07526 44.5371V15.9907L7.90828 19.1321V48.4639Z" fill="white"/>
<path d="M188.71 18.4753V28.4043C187.414 25.9849 184.982 24.4138 181.917 24.4138C177.399 24.4138 173.734 27.9644 173.734 32.6147C173.734 37.2649 177.399 40.8155 181.917 40.8155C184.982 40.8155 187.414 39.2444 188.71 36.825V40.4698H190.29V18.4753H188.71ZM182.012 39.3073C178.252 39.3073 175.313 36.3537 175.313 32.6147C175.313 28.8756 178.252 25.922 182.012 25.922C185.771 25.922 188.71 28.8756 188.71 32.6147C188.71 36.3537 185.771 39.3073 182.012 39.3073Z" fill="white"/>
<path d="M202.249 24.4138C197.415 24.4138 194.066 27.9958 194.066 32.6147C194.066 37.3592 197.51 40.8155 202.376 40.8155C205.504 40.8155 207.968 39.4015 209.263 37.2649L207.873 36.448C206.957 38.1133 204.998 39.3073 202.407 39.3073C198.805 39.3073 196.088 36.9821 195.709 33.4316H210.022C210.022 33.1802 210.053 32.9289 210.053 32.6775C210.053 28.3729 207.052 24.4138 202.249 24.4138ZM202.249 25.922C205.346 25.922 208.063 28.0587 208.41 31.892H195.709C196.025 28.4043 198.647 25.922 202.249 25.922Z" fill="white"/>
<path d="M224.724 24.7595L218.753 38.836L212.813 24.7595H211.107L217.805 40.4698H219.732L226.399 24.7595H224.724Z" fill="white"/>
<path d="M235.758 24.4138C230.923 24.4138 227.574 27.9958 227.574 32.6147C227.574 37.3592 231.018 40.8155 235.884 40.8155C239.012 40.8155 241.476 39.4015 242.772 37.2649L241.381 36.448C240.465 38.1133 238.506 39.3073 235.915 39.3073C232.314 39.3073 229.596 36.9821 229.217 33.4316H243.53C243.53 33.1802 243.562 32.9289 243.562 32.6775C243.562 28.3729 240.56 24.4138 235.758 24.4138ZM235.758 25.922C238.854 25.922 241.571 28.0587 241.919 31.892H229.217C229.533 28.4043 232.156 25.922 235.758 25.922Z" fill="white"/>
<path d="M247.254 40.4698H248.834V17.5327H247.254V40.4698Z" fill="white"/>
<path d="M260.938 40.8155C265.519 40.8155 269.216 37.2649 269.216 32.6147C269.216 27.9644 265.519 24.4138 260.938 24.4138C256.325 24.4138 252.628 27.9644 252.628 32.6147C252.628 37.2649 256.325 40.8155 260.938 40.8155ZM260.938 39.3073C257.178 39.3073 254.24 36.3537 254.24 32.6147C254.24 28.8756 257.178 25.922 260.938 25.922C264.698 25.922 267.605 28.8756 267.605 32.6147C267.605 36.3537 264.698 39.3073 260.938 39.3073Z" fill="white"/>
<path d="M281.39 24.4138C278.326 24.4138 275.893 25.9849 274.597 28.4043V24.7595H273.018V46.754H274.597V36.825C275.893 39.2444 278.326 40.8155 281.39 40.8155C285.909 40.8155 289.574 37.2649 289.574 32.6147C289.574 27.9644 285.909 24.4138 281.39 24.4138ZM281.296 39.3073C277.536 39.3073 274.597 36.3537 274.597 32.6147C274.597 28.8756 277.536 25.922 281.296 25.922C285.055 25.922 287.994 28.8756 287.994 32.6147C287.994 36.3537 285.055 39.3073 281.296 39.3073Z" fill="white"/>
<path d="M310.254 24.4138C308.137 24.4138 306.115 25.4193 304.977 27.6188C304.156 25.545 302.355 24.4138 300.048 24.4138C298.026 24.4138 296.131 25.2936 294.962 27.4617V24.7595H293.382V40.4698H294.962V31.7035C294.962 27.6816 297.268 25.922 299.859 25.922C302.292 25.922 303.903 27.5245 303.903 30.5095V40.4698H305.483V31.7035C305.483 27.6816 307.568 25.922 310.222 25.922C312.686 25.922 314.424 27.5245 314.424 30.5095V40.4698H316.004V30.5095C316.004 26.5819 313.603 24.4138 310.254 24.4138Z" fill="white"/>
<path d="M327.581 24.4138C322.747 24.4138 319.398 27.9958 319.398 32.6147C319.398 37.3592 322.842 40.8155 327.708 40.8155C330.835 40.8155 333.3 39.4015 334.595 37.2649L333.205 36.448C332.289 38.1133 330.33 39.3073 327.739 39.3073C324.137 39.3073 321.42 36.9821 321.041 33.4316H335.354C335.354 33.1802 335.385 32.9289 335.385 32.6775C335.385 28.3729 332.384 24.4138 327.581 24.4138ZM327.581 25.922C330.677 25.922 333.395 28.0587 333.742 31.892H321.041C321.357 28.4043 323.979 25.922 327.581 25.922Z" fill="white"/>
<path d="M346.313 24.4138C343.88 24.4138 341.858 25.4193 340.657 27.7444V24.7595H339.078V40.4698H340.657V32.1748C340.657 27.933 343.09 25.922 346.187 25.922C349.156 25.922 350.831 27.8073 350.831 30.698V40.4698H352.442V30.698C352.442 26.8961 350.073 24.4138 346.313 24.4138Z" fill="white"/>
<path d="M365 26.2991V24.7595H360.292V20.3606L358.681 20.8319V24.7595H355.205V26.2991H358.681V36.5108C358.681 40.0928 360.861 41.0982 365 40.4698V39.0559C361.777 39.3387 360.292 39.2758 360.292 36.5108V26.2991H365Z" fill="white"/>
<path d="M102.483 29.715H91.4175V31.2971H100.781C100.434 35.4422 97.1869 38.7647 91.8274 38.7647C85.9004 38.7647 81.8965 34.398 81.8965 28.9556C81.8965 23.5131 85.9004 19.1465 91.7012 19.1465C95.1692 19.1465 98.2588 20.9817 99.709 23.7662L101.191 22.8803C99.3622 19.6844 95.7997 17.5327 91.7012 17.5327C84.9861 17.5327 80.2256 22.6271 80.2256 28.9556C80.2256 35.284 84.9861 40.3784 91.8274 40.3784C98.4164 40.3784 102.483 35.9169 102.483 30.5693V29.715Z" fill="white"/>
<path d="M113.449 23.8612C108.626 23.8612 105.284 27.4684 105.284 32.1198C105.284 36.8978 108.72 40.3784 113.575 40.3784C116.696 40.3784 119.155 38.9545 120.448 36.8028L119.061 35.9801C118.147 37.6572 116.192 38.8596 113.607 38.8596C110.013 38.8596 107.301 36.5181 106.923 32.9425H121.205C121.205 32.6894 121.236 32.4362 121.236 32.1831C121.236 27.8481 118.241 23.8612 113.449 23.8612ZM113.449 25.38C116.539 25.38 119.25 27.5317 119.597 31.392H106.923C107.238 27.8797 109.855 25.38 113.449 25.38Z" fill="white"/>
<path d="M141.756 23.8612C139.643 23.8612 137.626 24.8737 136.491 27.0887C135.671 25.0003 133.874 23.8612 131.573 23.8612C129.555 23.8612 127.663 24.7471 126.497 26.9305V24.2092H124.921V40.0304H126.497V31.2022C126.497 27.152 128.798 25.38 131.383 25.38C133.811 25.38 135.419 26.9937 135.419 29.9998V40.0304H136.995V31.2022C136.995 27.152 139.076 25.38 141.724 25.38C144.183 25.38 145.917 26.9937 145.917 29.9998V40.0304H147.493V29.9998C147.493 26.0445 145.097 23.8612 141.756 23.8612Z" fill="white"/>
<path d="M153.024 28.3544C153.024 26.4558 154.758 25.38 156.807 25.38C158.541 25.38 160.18 26.1394 160.842 27.7848L162.167 27.0254C161.315 25.0952 159.361 23.8612 156.807 23.8612C153.591 23.8612 151.448 25.8546 151.448 28.3544C151.448 34.05 161 31.5819 161 35.8852C161 37.8787 159.14 38.8596 156.933 38.8596C154.569 38.8596 152.866 37.7838 152.299 36.0751L150.943 36.8661C151.7 38.8912 153.781 40.3784 156.933 40.3784C160.307 40.3784 162.576 38.4799 162.576 35.8852C162.576 30.0947 153.024 32.5944 153.024 28.3544Z" fill="white"/>
</g>
<defs>
<clipPath id="clip0_1007_143933">
<rect width="365" height="60" fill="white"/>
</clipPath>
</defs>
</svg>
