<svg width="137" height="52" viewBox="0 0 137 52" fill="none" xmlns="http://www.w3.org/2000/svg">
<path d="M0 12.4603H4.34V39.3703H0V51.8303H28.08V39.3703H23.73V12.4603H28.08V0.0102539H0V12.4603Z" fill="white"/>
<path d="M55.9 19.92V12.46H63.39C65.38 12.46 67.05 14.18 67.05 16.17C67.05 18.16 65.32 19.91 63.34 19.91H55.91L55.9 19.92ZM63.66 39.46H55.9V31.7H63.68C65.9 31.7 67.57 33.6 67.57 35.57C67.57 37.54 66.02 39.46 63.66 39.46ZM77.66 24.89C78.65 24.6 84.67 21.65 84.67 12.96C84.67 6.26 79.47 0 70.48 0H33.75V12.45H38.09V39.36H33.75V51.82H73.04C79.71 51.82 86.4 45.63 86.4 37.27C86.4 31.61 82.91 27.13 77.65 25.07V24.89H77.66Z" fill="white"/>
<path d="M109.7 19.9203C107.54 19.9203 105.99 18.0003 105.99 16.1803C105.99 14.1303 107.68 12.4703 109.7 12.4703H117.13V16.1103H133.09L133.11 16.0903V0.0102539H106.39C96.33 0.0102539 88.46 5.97026 88.46 16.1103C88.46 24.9303 95.63 31.6603 104.47 31.6603H115.04C117.28 31.6603 118.93 33.5803 118.93 35.5703C118.93 37.5603 117.25 39.4603 115.04 39.4603H107.26V35.7103H91.14V51.8303H120.47C129.37 51.8403 136.61 44.6103 136.61 35.7003C136.61 26.7903 129.33 19.9203 120.42 19.9203H109.7Z" fill="white"/>
</svg>
