<svg width="876" height="216" viewBox="0 0 876 216" fill="none" xmlns="http://www.w3.org/2000/svg">
<g clip-path="url(#clip0_158_507)">
<path d="M22.5378 5.66258L-0.00683594 189.274L37.035 193.822L59.5796 10.2107L22.5378 5.66258Z" fill="white"/>
<path d="M198 75.1801L196.38 88.3801L191.29 87.7501C186.64 79.6601 173.72 68.2001 154.74 65.8701C113.07 60.7501 80.7098 88.9701 75.7298 129.48C70.7598 169.99 95.3598 204.97 137.03 210.09C156.01 212.42 171.33 204.43 177.79 197.71L182.88 198.33L181.26 211.53L216.22 215.82L232.96 79.4701L198 75.1801ZM146.15 175.96C118.14 172.52 110.02 162.13 113.46 134.11C116.9 106.1 127.32 97.7501 155.33 101.18C183.34 104.62 191.43 115.25 188 143.26C184.56 171.27 174.16 179.39 146.15 175.96Z" fill="white"/>
<path d="M491.06 47.71C447.69 47.71 417.23 76.25 417.23 120.44C417.23 161.34 444.95 193.17 491.06 192.9C526.47 192.9 549.79 175.89 560.5 148.44H525.64C519.05 161.34 509.72 162.99 490.51 162.71C470.75 162.43 455.93 157.22 455.38 134.99H561.87C562.15 131.97 562.7 124.83 562.7 120.44C562.7 77.35 531.68 47.71 491.06 47.71ZM491.06 80.1C514.39 80.1 525.92 85.59 526.19 109.47H455.37C455.92 85.59 467.17 80.1 491.05 80.1H491.06Z" fill="white"/>
<path d="M821.42 49.11C804.89 49.11 791.44 56.23 782.86 68.51H777.37V0H741.74V188.88H778.69V115.96C778.74 92.06 785.84 85.14 808.76 85.14C831.68 85.14 838.83 92.12 838.83 116.22V188.89H876.01V111.31C876.01 70.69 855.52 49.11 821.43 49.11H821.42Z" fill="white"/>
<path d="M389.02 51.51V85.86H314.39V154.54H277.07V0H314.39V51.51H389.02Z" fill="white"/>
<path d="M389.021 154.54H314.391V188.88H389.021V154.54Z" fill="white"/>
<path d="M708.191 154.54H633.561V188.88H708.191V154.54Z" fill="white"/>
<path d="M596.24 120.2V154.54H633.56V120.2V85.8601H596.24V120.2Z" fill="white"/>
<path d="M708.191 51.51H633.561V85.85H708.191V51.51Z" fill="white"/>
</g>
<defs>
<clipPath id="clip0_158_507">
<rect width="876" height="215.82" fill="white"/>
</clipPath>
</defs>
</svg>
