<svg width="331" height="62" viewBox="0 0 331 62" fill="none" xmlns="http://www.w3.org/2000/svg">
<path d="M9.84041 30.6794L44.4826 16.3303C50.8599 13.6887 53.8882 6.3775 51.2467 3.27982e-05L16.6047 14.3492C10.2272 16.9908 7.19885 24.3022 9.84041 30.6794Z" fill="white"/>
<path d="M36.2607 40.029C42.638 37.3874 45.6666 30.0762 43.025 23.6988L8.38276 38.0479C2.00554 40.6895 -1.02283 48.0009 1.61873 54.3782L36.2607 40.029Z" fill="white"/>
<path d="M65.5957 34.6411L19.4063 53.7732C22.0481 60.1507 29.3593 63.1791 35.7365 60.5375L58.8315 50.9713C65.2089 48.3298 68.2371 41.0186 65.5957 34.6411Z" fill="white"/>
<path d="M106.067 33.5544C105.845 27.2628 101.925 23.8921 97.2654 23.8921C91.7916 23.8921 87.3534 27.2628 86.244 33.5544H106.067ZM97.3393 18.1251C107.843 18.1251 113.465 26.0646 113.465 35.8765C113.465 36.8503 113.243 38.8722 113.243 38.8722H85.948C86.3917 46.9618 92.1614 51.5307 98.8185 51.5307C105.254 51.5307 109.766 47.1114 109.766 47.1114L112.873 52.2796C112.873 52.2796 107.325 57.8223 98.4487 57.8223C86.6138 57.8223 78.5508 49.2086 78.5508 37.9737C78.5508 25.9145 86.6876 18.1251 97.3393 18.1251" fill="white"/>
<path d="M118.862 24.866H114.202V19.0237H118.862V17.7508C118.862 5.24236 128.256 3.66974 132.991 3.66974C134.618 3.66974 135.728 3.89408 135.728 3.89408V10.1109C135.728 10.1109 134.988 9.96132 133.878 9.96132C131.068 9.96132 126.038 10.8598 126.038 17.9003V19.0237H134.914V24.866H126.038V56.9233H118.862V24.866Z" fill="white"/>
<path d="M137.207 24.866H132.547V19.0237H137.207V17.7508C137.207 5.24236 146.601 3.66974 151.335 3.66974C152.963 3.66974 154.072 3.89408 154.072 3.89408V10.1109C154.072 10.1109 153.333 9.96132 152.223 9.96132C149.412 9.96132 144.382 10.8598 144.382 17.9003V19.0237H153.259V24.866H144.382V56.9233H137.207V24.866Z" fill="white"/>
<path d="M179.887 33.5544C179.665 27.2628 175.745 23.8921 171.084 23.8921C165.61 23.8921 161.173 27.2628 160.063 33.5544H179.887ZM171.158 18.1251C181.662 18.1251 187.283 26.0646 187.283 35.8765C187.283 36.8503 187.062 38.8722 187.062 38.8722H159.767C160.211 46.9618 165.981 51.5307 172.638 51.5307C179.073 51.5307 183.585 47.1114 183.585 47.1114L186.692 52.2796C186.692 52.2796 181.144 57.8223 172.268 57.8223C160.433 57.8223 152.37 49.2086 152.37 37.9737C152.37 25.9145 160.507 18.1251 171.158 18.1251" fill="white"/>
<path d="M209.399 18.1254C213.911 18.1254 222.861 19.9977 222.861 26.4394V30.3341H216.352V28.2369C216.352 25.5404 212.136 24.3422 209.399 24.3422C202.076 24.3422 196.602 29.8843 196.602 37.8987C196.602 46.5123 202.816 51.3809 209.769 51.3809C216.796 51.3809 221.382 46.1379 221.382 46.1379L224.489 51.3061C224.489 51.3061 219.163 57.822 209.252 57.822C197.49 57.822 189.279 49.3585 189.279 37.9734C189.279 26.8139 197.342 18.1254 209.399 18.1254Z" fill="white"/>
<path d="M229.072 24.8662H224.19V19.0239H229.22V8.61324H236.247V19.0239H245.198V24.8662H236.247V42.2432C236.247 49.8077 241.425 50.7815 244.162 50.7815C245.198 50.7815 245.864 50.6319 245.864 50.6319V57.0731C245.864 57.0731 244.902 57.2227 243.349 57.2227C238.615 57.2227 229.072 55.7248 229.072 43.0669V24.8662Z" fill="white"/>
<path d="M251.559 4.04419H257.994V11.6087H251.559V4.04419ZM251.411 26.8885C251.411 25.7651 250.819 25.2411 249.784 25.2411H246.751V19.0237H253.778C257.107 19.0237 258.512 20.4473 258.512 23.8174V49.0586C258.512 50.1825 259.104 50.7065 260.139 50.7065H263.172V56.9233H256.145C252.817 56.9233 251.411 55.5003 251.411 52.1296V26.8885V26.8885Z" fill="white"/>
<path d="M264.059 26.7386C263.616 25.6153 262.95 25.2408 261.766 25.2408H261.026V19.024H264.724C268.053 19.024 269.311 19.8477 270.42 22.8439L278.483 44.6396C279.223 46.7368 279.814 49.5829 279.814 49.5829H279.963C279.963 49.5829 280.554 46.7368 281.294 44.6396L289.283 22.8439C290.392 19.8477 291.723 19.024 294.978 19.024H298.455V25.2408H297.715C296.457 25.2408 295.718 25.6153 295.274 26.7386L283.883 56.9231H275.599L264.059 26.7386Z" fill="white"/>
<path d="M323.604 33.5544C323.381 27.2628 319.461 23.8921 314.802 23.8921C309.327 23.8921 304.889 27.2628 303.78 33.5544H323.604ZM314.875 18.1251C325.378 18.1251 331 26.0646 331 35.8765C331 36.8503 330.778 38.8722 330.778 38.8722H303.484C303.927 46.9618 309.698 51.5307 316.355 51.5307C322.79 51.5307 327.302 47.1114 327.302 47.1114L330.409 52.2796C330.409 52.2796 324.861 57.8223 315.985 57.8223C304.149 57.8223 296.087 49.2086 296.087 37.9737C296.087 25.9145 304.224 18.1251 314.875 18.1251" fill="white"/>
</svg>
