<svg width="437" height="125" viewBox="0 0 437 125" fill="none" xmlns="http://www.w3.org/2000/svg">
<path d="M62.0802 41.6562C56.6002 41.6562 50.5502 43.1762 45.4302 46.5462L49.7102 53.2663C53.0502 51.1463 57.3802 50.0863 61.1102 50.0863C65.6202 50.0863 68.7202 52.8962 68.7202 56.4662V57.8462C64.2402 56.6762 61.1002 56.2262 57.0802 56.5262C49.0402 57.1362 42.6602 61.7662 42.6602 70.2162C42.6602 77.2362 48.8102 83.1963 56.4902 83.1963C61.1302 83.1963 66.0102 81.0262 68.7202 77.4262V82.2862H78.6702V57.5662C78.6702 47.6062 72.4702 41.6562 62.0702 41.6562H62.0802ZM68.7202 69.2562C68.7202 69.2562 65.1702 74.5362 58.0902 74.5362C54.0902 74.5362 51.5702 72.2263 51.5702 69.3063C51.5702 64.6063 58.2502 61.9362 68.7202 64.9062V69.2562Z" fill="white"/>
<path d="M176.29 51.4163V42.6763H163.45V31.7363H152.63V42.6763H144.07V51.4163H152.63V68.4663C152.63 77.2663 157.04 83.1363 168.26 83.1363C173.94 83.1363 178.18 80.4963 178.18 80.4963L172.99 72.4663C170.39 73.4863 168.08 73.5663 167.28 73.4263C165.09 73.0563 163.45 71.6063 163.45 67.7863V51.3963H176.29V51.4163Z" fill="white"/>
<path d="M272.24 51.4163V42.6763H259.4V31.7363H248.58V42.6763H240.02V51.4163H248.58V68.4663C248.58 77.2663 252.99 83.1363 264.21 83.1363C269.89 83.1363 274.13 80.4963 274.13 80.4963L268.94 72.4663C266.34 73.4863 264.03 73.5663 263.23 73.4263C261.04 73.0563 259.4 71.6063 259.4 67.7863V51.3963H272.24V51.4163Z" fill="white"/>
<path d="M139.76 31.0662C139.76 34.9162 136.63 38.0362 132.79 38.0362C128.95 38.0362 125.81 34.9162 125.81 31.0662C125.81 27.2162 128.93 24.0962 132.79 24.0962C136.65 24.0962 139.76 27.2262 139.76 31.0662Z" fill="white"/>
<path d="M138.2 42.6763H127.37V82.3263H138.2V42.6763Z" fill="white"/>
<path d="M111.91 42.6763L101.31 71.5263L90.7199 42.6763H79.8999L94.4699 82.3263H97.3499H105.27H108.15L122.72 42.6763H111.91Z" fill="white"/>
<path d="M199.22 41.6562C187.5 41.6562 177.99 50.9663 177.99 62.4263C177.99 73.8863 187.5 83.1963 199.22 83.1963C210.94 83.1963 220.46 73.8963 220.46 62.4263C220.46 50.9563 210.94 41.6562 199.22 41.6562ZM199.22 73.2562C193.19 73.2562 188.3 68.4762 188.3 62.5762C188.3 56.6762 193.19 51.8962 199.22 51.8962C205.25 51.8962 210.14 56.6762 210.14 62.5762C210.14 68.4762 205.26 73.2562 199.22 73.2562Z" fill="white"/>
<path d="M239.57 76.2361C239.57 80.0861 236.44 83.2061 232.6 83.2061C228.76 83.2061 225.62 80.0861 225.62 76.2361C225.62 72.3861 228.74 69.2661 232.6 69.2661C236.46 69.2661 239.57 72.3961 239.57 76.2361Z" fill="white"/>
<path d="M311.62 64.3163C311.78 63.0163 311.93 61.7463 311.93 60.5263C311.93 49.2463 304.84 41.6663 294.29 41.6663C282.37 41.6663 274.05 50.2063 274.05 62.4363C274.05 74.6663 283.04 83.2063 295.43 83.2063C301.29 83.2063 307.38 81.0363 311.33 77.5363L311.57 77.3263L306.7 69.6963C303.4 72.3563 299.72 73.8763 296.11 73.8763C289.96 73.8763 285.61 70.4563 284.89 64.6763H311.57L311.61 64.3163H311.62ZM285.17 57.2263C286.2 52.6363 289.57 50.0863 294.05 50.0863C298.26 50.0863 301.18 52.7663 301.41 57.2263H285.16H285.17Z" fill="white"/>
<path d="M349.33 69.0263C346.31 71.9663 342.22 73.8663 338.46 73.8663C330.77 73.8663 326.74 68.2163 326.74 62.3563C326.74 55.6063 331.54 50.9963 338.16 50.9963C341.68 50.9963 345.14 52.5563 347.65 55.0763L353.09 47.8263L352.88 47.5963C349.45 43.8863 343.75 41.6663 337.63 41.6663C325.15 41.6663 316.1 50.4063 316.1 62.4363C316.1 74.4663 325.16 83.2063 337.63 83.2063C343.94 83.2063 350.19 80.7263 353.94 76.7463L354.14 76.5363L349.33 69.0263Z" fill="white"/>
<path d="M358.23 24.0862H368.93V45.2262C371.35 43.4562 374.67 41.6562 379.2 41.6562C389.54 41.6562 394.53 47.1662 394.53 59.5162V82.3162H383.83V60.0362C383.74 53.8662 381.51 51.7762 376.37 51.7762C373.62 51.7762 370.79 53.2662 368.93 56.3862V82.3062H358.23V24.0862Z" fill="white"/>
</svg>
