<svg width="344" height="115" viewBox="0 0 344 115" fill="none" xmlns="http://www.w3.org/2000/svg">
<g clip-path="url(#clip0_226_36976)">
<path d="M114.51 41.38H106.26V8.24H73.12V0H114.51V41.38Z" fill="white"/>
<path d="M98.05 49.63V72.02C98.05 88.9 98.05 98.2 93.98 102.21C89.91 106.22 81.22 106.29 63.78 106.29H42.52C25.63 106.29 16.33 106.29 12.32 102.22C8.31 98.15 8.25 89.45 8.25 72.01V50.76C8.25 33.88 8.25 24.58 12.31 20.57C16.37 16.56 25.08 16.49 42.52 16.49H64.91V8.23999H42.52C1.98 8.23999 0 10.24 0 50.76V72.02C0 112.56 2 114.54 42.52 114.54H63.78C104.3 114.54 106.3 112.54 106.3 72.04V49.63H98.05Z" fill="white"/>
<path d="M127.19 21.4101C127.1 19.1701 127.33 16.9201 127.87 14.7401C129.13 10.8701 132.43 8.82007 136.77 8.82007C141.11 8.82007 144.41 10.8701 145.67 14.7401C146.21 16.9201 146.44 19.1701 146.35 21.4101C146.44 23.6601 146.21 25.9101 145.67 28.0901C144.41 31.9601 141.11 34.0101 136.77 34.0101C132.43 34.0101 129.13 31.9601 127.87 28.0901C127.33 25.9101 127.1 23.6601 127.19 21.4101ZM141 21.4101C141.08 19.6601 140.95 17.9001 140.61 16.1801C139.83 14.0601 137.48 12.9701 135.36 13.7501C134.23 14.1601 133.34 15.0501 132.93 16.1801C132.59 17.9001 132.46 19.6601 132.54 21.4101C132.45 23.1601 132.57 24.9101 132.89 26.6301C133.67 28.7501 136.02 29.8401 138.14 29.0601C139.27 28.6501 140.16 27.7601 140.57 26.6301C140.91 24.9101 141.04 23.1601 140.96 21.4101H141Z" fill="white"/>
<path d="M155.9 33.63C155.65 33.63 155.54 33.53 155.54 33.27V14.13C155.55 14.03 155.48 13.93 155.37 13.92C155.36 13.92 155.34 13.92 155.33 13.92H149.19C148.94 13.92 148.84 13.81 148.84 13.56V9.63002C148.84 9.38002 148.94 9.27002 149.19 9.27002H167.19C167.44 9.27002 167.55 9.38002 167.55 9.63002V13.63C167.55 13.88 167.44 13.99 167.19 13.99H161.02C160.92 13.97 160.82 14.04 160.8 14.15C160.8 14.17 160.8 14.19 160.8 14.2V33.25C160.8 33.51 160.7 33.61 160.44 33.61L155.9 33.63Z" fill="white"/>
<path d="M171.77 33.6299C171.51 33.6299 171.41 33.5299 171.41 33.2699V9.62988C171.41 9.37988 171.51 9.26988 171.77 9.26988H176.32C176.57 9.26988 176.68 9.37988 176.68 9.62988V18.7399C176.68 18.8799 176.75 18.9499 176.9 18.9499H178.62C179.94 18.9799 181.12 18.1099 181.49 16.8399L183.03 13.0299C184.18 10.1299 185.76 9.12988 188.63 9.12988H190.13C190.38 9.12988 190.49 9.22988 190.49 9.47988V13.3599C190.49 13.5699 190.38 13.6799 190.13 13.6799H189.81C188.72 13.5499 187.7 14.2599 187.44 15.3299L186.26 18.3299C186 19.4399 185.27 20.3799 184.26 20.9099V21.0599C185.42 21.4499 186.31 22.3899 186.63 23.5699L188.1 27.4799C188.28 28.5499 189.28 29.2899 190.36 29.1299H190.76C191.01 29.1299 191.12 29.2399 191.12 29.4499V33.4499C191.12 33.6999 191.01 33.8099 190.76 33.8099H189.03C186.13 33.8099 184.48 32.7299 183.37 29.8099L181.82 25.8099C181.4 24.3999 180.04 23.4899 178.58 23.6299H176.9C176.79 23.6199 176.69 23.6999 176.68 23.8099C176.68 23.8199 176.68 23.8399 176.68 23.8499V33.2799C176.68 33.5399 176.57 33.6399 176.32 33.6399H171.77V33.6299Z" fill="white"/>
<path d="M195.82 33.6301C195.56 33.6301 195.46 33.5301 195.46 33.2701V9.6301C195.46 9.3801 195.56 9.2701 195.82 9.2701H205.29C207.56 9.1401 209.79 9.9201 211.49 11.4201C213.04 12.9001 213.88 14.9801 213.79 17.1201C213.87 19.2501 213.03 21.3201 211.49 22.7901C209.79 24.2901 207.56 25.0701 205.29 24.9501H200.95C200.8 24.9501 200.73 25.0201 200.73 25.1601V33.3001C200.73 33.5601 200.62 33.6601 200.37 33.6601L195.82 33.6301ZM204.96 20.3601C207.15 20.3601 208.52 19.1001 208.52 17.0901C208.52 15.0801 207.15 13.8001 204.96 13.8001H200.96C200.81 13.8001 200.74 13.8701 200.74 14.0101V20.1401C200.72 20.2401 200.79 20.3401 200.89 20.3601C200.91 20.3601 200.93 20.3601 200.96 20.3601H204.96Z" fill="white"/>
<path d="M218.43 33.63C218.18 33.63 218.07 33.53 218.07 33.27V9.63002C218.07 9.38002 218.18 9.27002 218.43 9.27002H222.98C223.23 9.27002 223.34 9.38002 223.34 9.63002V17.81C223.34 17.95 223.41 18.02 223.56 18.02H227.9C233.35 18.02 236.54 21.11 236.54 25.81C236.54 30.51 233.39 33.63 227.9 33.63H218.43ZM227.61 29.08C229.94 29.08 231.27 27.89 231.27 25.78C231.27 23.67 229.94 22.51 227.61 22.51H223.61C223.51 22.49 223.41 22.56 223.39 22.66C223.39 22.68 223.39 22.7 223.39 22.73V28.86C223.37 28.96 223.44 29.06 223.54 29.08C223.56 29.08 223.58 29.08 223.61 29.08H227.61ZM239.61 33.63C239.35 33.63 239.25 33.53 239.25 33.27V9.63002C239.25 9.38002 239.35 9.27002 239.61 9.27002H244.16C244.41 9.27002 244.52 9.38002 244.52 9.63002V33.25C244.52 33.51 244.41 33.61 244.16 33.61L239.61 33.63Z" fill="white"/>
<path d="M255.43 33.63C255.18 33.63 255.07 33.53 255.07 33.27V14.13C255.08 14.03 255.01 13.93 254.9 13.92C254.89 13.92 254.87 13.92 254.86 13.92H248.69C248.44 13.92 248.33 13.81 248.33 13.56V9.63002C248.33 9.38002 248.44 9.27002 248.69 9.27002H266.69C266.94 9.27002 267.05 9.38002 267.05 9.63002V13.63C267.05 13.88 266.94 13.99 266.69 13.99H260.52C260.42 13.97 260.32 14.04 260.3 14.15C260.3 14.17 260.3 14.19 260.3 14.2V33.25C260.3 33.51 260.2 33.61 259.95 33.61L255.43 33.63Z" fill="white"/>
<path d="M275.46 9.63C275.5 9.41 275.7 9.25 275.93 9.27H280.45C280.67 9.25 280.87 9.41 280.91 9.63L289.19 33.25C289.27 33.51 289.19 33.61 288.94 33.61H284.28C284.05 33.63 283.85 33.48 283.81 33.25L282.41 28.99H273.88L272.51 33.25C272.48 33.47 272.28 33.63 272.05 33.61H267.35C267.1 33.61 267.03 33.51 267.1 33.25L275.46 9.63ZM275.32 24.55H280.95L278.19 15.96H278.08L275.32 24.55Z" fill="white"/>
<path d="M291.83 33.7601C291.58 33.7601 291.47 33.6501 291.47 33.4001V29.4001C291.47 29.1901 291.58 29.0801 291.83 29.0801H292.33C293.27 29.1601 294.15 28.6001 294.48 27.7101L295.48 25.3501C295.81 24.4801 296.41 23.7501 297.19 23.2501V23.1001C294.32 22.4201 292.24 20.3001 292.24 16.5701C292.18 14.6001 292.96 12.7001 294.39 11.3401C295.97 9.90009 298.05 9.14009 300.19 9.22009H310.24C310.4 9.20009 310.54 9.32009 310.56 9.48009C310.56 9.50009 310.56 9.52009 310.56 9.54009V33.2501C310.56 33.5101 310.45 33.6101 310.24 33.6101H305.65C305.39 33.6101 305.29 33.5101 305.29 33.2501V24.7501C305.29 24.6101 305.22 24.5401 305.07 24.5401H303.24C301.84 24.5401 301.13 24.8201 300.45 26.4401L299.08 29.8101C297.93 32.6801 296.32 33.8101 293.41 33.8101L291.83 33.7601ZM305.1 20.0501C305.25 20.0501 305.32 19.9801 305.32 19.8401V14.0301C305.34 13.9301 305.27 13.8301 305.17 13.8101C305.15 13.8101 305.13 13.8101 305.1 13.8101H300.76C299.15 13.6201 297.7 14.7801 297.51 16.3801C297.49 16.5601 297.48 16.7401 297.5 16.9301C297.38 18.5401 298.58 19.9401 300.19 20.0601C300.38 20.0701 300.57 20.0701 300.76 20.0501H305.1Z" fill="white"/>
<path d="M128.19 65.9199C127.93 65.9199 127.83 65.8099 127.83 65.5599V41.8799C127.83 41.6299 127.93 41.5199 128.19 41.5199H132.46C132.71 41.4999 132.94 41.6499 133.03 41.8799L139.19 55.7999H139.33L145.4 41.8799C145.48 41.6399 145.72 41.4899 145.97 41.5199H150.19C150.44 41.5199 150.55 41.6299 150.55 41.8799V65.5599C150.55 65.8099 150.44 65.9199 150.19 65.9199H146.09C145.84 65.9199 145.73 65.8099 145.73 65.5599V51.8199H145.59L141.07 62.1099C140.98 62.3999 140.7 62.5899 140.39 62.5799H137.91C137.6 62.5899 137.33 62.3999 137.23 62.1099L132.71 51.8199H132.57V65.5599C132.57 65.8099 132.46 65.9199 132.21 65.9199H128.19Z" fill="white"/>
<path d="M155.44 53.7199C155.34 51.4799 155.57 49.2299 156.12 47.0499C157.37 43.1699 160.67 41.1299 165.02 41.1299C169.37 41.1299 172.66 43.1299 173.91 47.0499C174.46 49.2299 174.69 51.4799 174.59 53.7199C174.69 55.9599 174.46 58.2099 173.91 60.3899C172.66 64.2699 169.36 66.3099 165.02 66.3099C160.68 66.3099 157.37 64.3099 156.12 60.3899C155.57 58.2099 155.34 55.9599 155.44 53.7199ZM169.25 53.7199C169.33 51.9599 169.19 50.1999 168.85 48.4799C168.08 46.3599 165.74 45.2699 163.62 46.0399C162.48 46.4499 161.59 47.3499 161.18 48.4799C160.84 50.1999 160.7 51.9599 160.78 53.7199C160.7 55.4799 160.84 57.2399 161.18 58.9599C161.95 61.0799 164.29 62.1699 166.41 61.3999C167.55 60.9899 168.44 60.0899 168.85 58.9599C169.19 57.2399 169.33 55.4799 169.25 53.7199Z" fill="white"/>
<path d="M179.84 65.92C179.63 65.92 179.52 65.81 179.52 65.56V41.85C179.5 41.69 179.61 41.54 179.77 41.52C179.79 41.52 179.82 41.52 179.84 41.52H195.84C196.09 41.52 196.2 41.63 196.2 41.85V45.76C196.2 46.01 196.09 46.12 195.84 46.12H185.01C184.86 46.12 184.79 46.19 184.79 46.33V50.63C184.78 50.74 184.86 50.84 184.97 50.85C184.98 50.85 185 50.85 185.01 50.85H189.78C191.9 50.74 193.98 51.49 195.55 52.93C197.01 54.34 197.8 56.31 197.71 58.34C197.79 60.38 197.01 62.37 195.55 63.8C193.98 65.24 191.9 65.99 189.78 65.88L179.84 65.92ZM189.28 61.43C190.95 61.43 192.31 60.07 192.31 58.4C192.31 56.73 190.95 55.37 189.28 55.37H185.01C184.91 55.35 184.81 55.42 184.79 55.52C184.79 55.54 184.79 55.56 184.79 55.59V61.22C184.79 61.36 184.86 61.43 185.01 61.43H189.28Z" fill="white"/>
<path d="M202.67 65.92C202.46 65.92 202.35 65.81 202.35 65.56V41.85C202.33 41.69 202.44 41.54 202.6 41.52C202.62 41.52 202.65 41.52 202.67 41.52H207.3C207.46 41.5 207.6 41.62 207.62 41.78C207.62 41.8 207.62 41.83 207.62 41.85V56.85H207.73L216.63 41.85C216.73 41.67 216.92 41.56 217.13 41.56H221.33C221.49 41.54 221.63 41.66 221.65 41.82C221.65 41.84 221.65 41.87 221.65 41.89V65.56C221.65 65.81 221.54 65.92 221.33 65.92H216.74C216.48 65.92 216.38 65.81 216.38 65.56V50.56H216.27L207.37 65.63C207.27 65.81 207.08 65.92 206.87 65.92H202.67Z" fill="white"/>
<path d="M225.61 66.06C225.36 66.06 225.25 65.95 225.25 65.7V61.7C225.25 61.48 225.36 61.37 225.61 61.37H226.07C227.3 61.39 228.43 60.71 229.01 59.63C229.73 58.45 230.09 56.26 230.09 53.03V41.85C230.09 41.63 230.2 41.52 230.45 41.52H246.45C246.67 41.52 246.77 41.63 246.77 41.85V65.56C246.77 65.81 246.67 65.92 246.49 65.92H241.82C241.61 65.92 241.5 65.81 241.5 65.56V46.44C241.51 46.33 241.43 46.23 241.32 46.22C241.31 46.22 241.29 46.22 241.28 46.22H235.47C235.37 46.21 235.27 46.28 235.26 46.39C235.26 46.41 235.26 46.43 235.26 46.44V53.36C235.26 57.99 234.61 61.25 233.26 63.19C231.91 65.14 229.63 66.24 227.26 66.06H225.61Z" fill="white"/>
<path d="M252.71 65.92C252.45 65.92 252.35 65.81 252.35 65.56V41.88C252.35 41.63 252.45 41.52 252.71 41.52H257.26C257.51 41.52 257.62 41.63 257.62 41.88V50.06C257.6 50.16 257.67 50.26 257.77 50.28C257.79 50.28 257.81 50.28 257.84 50.28H262.19C267.64 50.28 270.83 53.36 270.83 58.06C270.83 62.76 267.68 65.92 262.19 65.92H252.71ZM261.89 61.36C264.19 61.36 265.55 60.11 265.55 57.99C265.55 55.87 264.22 54.8 261.89 54.8H257.84C257.69 54.8 257.62 54.87 257.62 55.01V61.15C257.62 61.29 257.69 61.36 257.84 61.36H261.89Z" fill="white"/>
<path d="M275.54 65.92C275.29 65.92 275.18 65.81 275.18 65.56V41.88C275.18 41.63 275.29 41.52 275.54 41.52H280.09C280.34 41.52 280.45 41.63 280.45 41.88V51.03C280.44 51.14 280.52 51.24 280.63 51.25C280.64 51.25 280.66 51.25 280.67 51.25H288.67C288.77 51.26 288.87 51.19 288.88 51.08C288.88 51.06 288.88 51.04 288.88 51.03V41.88C288.88 41.63 288.99 41.52 289.24 41.52H293.8C294.05 41.52 294.16 41.63 294.16 41.88V65.56C294.16 65.81 294.05 65.92 293.8 65.92H289.19C288.94 65.92 288.83 65.81 288.83 65.56V56.16C288.84 56.06 288.77 55.96 288.66 55.95C288.65 55.95 288.63 55.95 288.62 55.95H280.62C280.47 55.95 280.4 56.02 280.4 56.16V65.56C280.4 65.81 280.29 65.92 280.04 65.92H275.54Z" fill="white"/>
<path d="M306.36 41.88C306.4 41.66 306.6 41.5 306.83 41.52H311.35C311.57 41.5 311.77 41.66 311.81 41.88L320.07 65.56C320.14 65.81 320.07 65.92 319.82 65.92H315.19C314.96 65.94 314.76 65.78 314.72 65.56L313.33 61.29H304.79L303.42 65.56C303.38 65.78 303.18 65.94 302.96 65.92H298.19C297.94 65.92 297.87 65.81 297.94 65.56L306.36 41.88ZM306.19 56.81H311.82L309.06 48.27H308.95L306.19 56.81Z" fill="white"/>
<path d="M322.73 66.06C322.48 66.06 322.37 65.95 322.37 65.7V61.7C322.37 61.48 322.48 61.37 322.73 61.37H323.24C324.18 61.45 325.06 60.9 325.39 60.01L326.39 57.64C326.72 56.8 327.29 56.07 328.04 55.56V55.42C325.17 54.74 323.04 52.62 323.04 48.89C322.99 46.9 323.79 44.99 325.24 43.63C326.84 42.17 328.96 41.41 331.13 41.51H341.13C341.29 41.49 341.44 41.6 341.46 41.75C341.46 41.78 341.46 41.81 341.46 41.84V65.56C341.46 65.81 341.35 65.92 341.13 65.92H336.54C336.29 65.92 336.18 65.81 336.18 65.56V57.06C336.18 56.91 336.11 56.84 335.97 56.84H334.19C332.91 56.66 331.7 57.48 331.39 58.74L330.03 62.11C328.88 64.98 327.27 66.11 324.36 66.11L322.73 66.06ZM336.01 52.36C336.15 52.36 336.22 52.29 336.22 52.14V46.33C336.23 46.23 336.16 46.13 336.05 46.12C336.04 46.12 336.02 46.12 336.01 46.12H331.67C329.67 46.12 328.4 47.19 328.4 49.24C328.28 50.85 329.5 52.26 331.11 52.37C331.3 52.38 331.48 52.37 331.67 52.36H336.01Z" fill="white"/>
<path d="M128.12 98.2201C127.9 98.2201 127.8 98.1101 127.8 97.8601V74.1501C127.78 74.0001 127.88 73.8501 128.03 73.8301C128.06 73.8301 128.09 73.8301 128.12 73.8301H146.12C146.37 73.8301 146.48 73.9301 146.48 74.1501V97.8601C146.48 98.1101 146.37 98.2201 146.16 98.2201H141.53C141.32 98.2201 141.21 98.1101 141.21 97.8601V78.7401C141.21 78.6001 141.14 78.5301 140.99 78.5301H133.29C133.14 78.5301 133.07 78.6001 133.07 78.7401V97.8601C133.07 98.1101 132.96 98.2201 132.75 98.2201H128.12Z" fill="white"/>
<path d="M150.41 98.3601C150.16 98.3601 150.05 98.2601 150.05 98.0101V94.0101C150.05 93.7901 150.16 93.6801 150.41 93.6801H150.88C152.1 93.7001 153.23 93.0301 153.82 91.9601C154.54 90.7801 154.89 88.5901 154.89 85.3601V74.1501C154.89 73.9301 155 73.8301 155.25 73.8301H171.25C171.47 73.8301 171.58 73.9301 171.58 74.1501V97.8601C171.58 98.1101 171.47 98.2201 171.29 98.2201H166.63C166.41 98.2201 166.3 98.1101 166.3 97.8601V78.7401C166.31 78.6401 166.24 78.5401 166.13 78.5301C166.12 78.5301 166.1 78.5301 166.09 78.5301H160.28C160.13 78.5301 160.06 78.6001 160.06 78.7401V85.6301C160.06 90.2501 159.42 93.5201 158.06 95.4501C156.71 97.4001 154.43 98.5001 152.06 98.3201L150.41 98.3601Z" fill="white"/>
<path d="M183.82 74.1899C183.86 73.9599 184.06 73.8099 184.29 73.8299H188.81C189.04 73.8099 189.24 73.9699 189.27 74.1899L197.52 97.8599C197.6 98.1099 197.52 98.2199 197.27 98.2199H192.61C192.38 98.2399 192.18 98.0799 192.14 97.8599L190.74 93.6299H182.19L180.82 97.8999C180.78 98.1199 180.58 98.2799 180.36 98.2599H175.66C175.41 98.2599 175.34 98.1499 175.41 97.8999L183.82 74.1899ZM183.68 89.1099H189.31L186.55 80.5699H186.44L183.68 89.1099Z" fill="white"/>
<path d="M204.39 98.2201C204.14 98.2201 204.03 98.1101 204.03 97.8601V78.7401C204.04 78.6401 203.97 78.5401 203.86 78.5301C203.85 78.5301 203.83 78.5301 203.82 78.5301H197.64C197.4 78.5301 197.29 78.4201 197.29 78.1701V74.1701C197.29 73.9101 197.4 73.8101 197.64 73.8101H215.69C215.94 73.8101 216.05 73.9101 216.05 74.1701V78.1701C216.05 78.4201 215.94 78.5301 215.69 78.5301H209.52C209.42 78.5101 209.32 78.5801 209.3 78.6901C209.3 78.7101 209.3 78.7301 209.3 78.7401V97.8601C209.3 98.1101 209.2 98.2201 208.94 98.2201H204.39Z" fill="white"/>
<path d="M228.87 98.6301C228.65 98.6301 228.54 98.5201 228.54 98.2701V95.6301C228.54 95.4801 228.47 95.4101 228.33 95.4101C221.15 94.9801 217.96 91.6801 217.96 85.4801C217.96 79.2801 221.41 76.2901 228.33 75.9701C228.47 75.9701 228.54 75.9001 228.54 75.7501V73.7501C228.54 73.5401 228.65 73.4301 228.9 73.4301H233.49C233.65 73.4101 233.8 73.5201 233.82 73.6801C233.82 73.7001 233.82 73.7301 233.82 73.7501V75.7501C233.82 75.9001 233.89 75.9701 234.03 75.9701C240.96 76.2901 244.44 79.4801 244.44 85.4801C244.44 91.4801 241.24 94.9801 234.03 95.4101C233.89 95.4101 233.82 95.4801 233.82 95.6301V98.2501C233.82 98.5001 233.71 98.6101 233.49 98.6101L228.87 98.6301ZM228.54 90.6301V80.7101C228.54 80.6101 228.47 80.5301 228.33 80.5301C224.85 80.6801 223.24 82.1501 223.24 85.7001C223.24 89.0401 224.85 90.6201 228.33 90.8701C228.43 90.8901 228.53 90.8101 228.55 90.7101C228.55 90.6801 228.55 90.6601 228.55 90.6301H228.54ZM239.16 85.6301C239.16 82.0801 237.55 80.6301 234.07 80.4601C233.89 80.4601 233.82 80.5401 233.82 80.6401V90.6301C233.82 90.7701 233.89 90.8501 234.07 90.8501C237.55 90.6301 239.19 89.0401 239.19 85.7001L239.16 85.6301Z" fill="white"/>
<path d="M248.19 86.0199C248.09 83.7799 248.32 81.5299 248.87 79.3499C250.12 75.4799 253.42 73.4299 257.76 73.4299C262.1 73.4299 265.41 75.4299 266.66 79.3499C267.21 81.5299 267.44 83.7799 267.34 86.0199C267.44 88.2699 267.21 90.5199 266.66 92.6999C265.41 96.5699 262.1 98.6199 257.76 98.6199C253.42 98.6199 250.12 96.6199 248.87 92.6999C248.32 90.5199 248.09 88.2699 248.19 86.0199ZM262 86.0199C262.08 84.2699 261.94 82.5099 261.6 80.7899C260.83 78.6699 258.49 77.5799 256.37 78.3499C255.23 78.7599 254.34 79.6599 253.93 80.7899C253.58 82.5099 253.45 84.2699 253.53 86.0199C253.45 87.7799 253.58 89.5399 253.93 91.2599C254.7 93.3799 257.04 94.4699 259.16 93.6999C260.3 93.2899 261.19 92.3899 261.6 91.2599C261.93 89.5299 262.05 87.7699 261.96 86.0199H262Z" fill="white"/>
<path d="M272.59 98.2201C272.34 98.2201 272.23 98.1101 272.23 97.8601V74.1901C272.23 73.9301 272.34 73.8301 272.59 73.8301H282.06C284.33 73.7101 286.56 74.4801 288.27 75.9801C291.32 79.1501 291.32 84.1801 288.27 87.3501C286.56 88.8501 284.33 89.6201 282.06 89.5001H277.72C277.62 89.4901 277.52 89.5601 277.51 89.6701C277.51 89.6901 277.51 89.7101 277.51 89.7201V97.8601C277.51 98.1101 277.4 98.2201 277.15 98.2201H272.59ZM281.74 84.9501C283.93 84.9501 285.29 83.6901 285.29 81.6801C285.29 79.6701 283.93 78.3801 281.74 78.3801H277.74C277.6 78.3801 277.53 78.4501 277.53 78.6001V84.7301C277.53 84.8801 277.6 84.9501 277.74 84.9501H281.74Z" fill="white"/>
<path d="M295.19 98.22C294.94 98.22 294.83 98.11 294.83 97.86V74.19C294.83 73.93 294.94 73.83 295.19 73.83H299.46C299.71 73.8 299.95 73.95 300.04 74.19L306.19 88.1H306.34L312.4 74.19C312.49 73.95 312.73 73.8 312.98 73.83H317.19C317.44 73.83 317.55 73.93 317.55 74.19V97.86C317.55 98.11 317.44 98.22 317.19 98.22H313.19C312.94 98.22 312.83 98.11 312.83 97.86V84.12H312.69L308.17 94.42C308.07 94.71 307.79 94.89 307.49 94.88H305.01C304.71 94.9 304.43 94.71 304.33 94.42L299.81 84.12H299.66V97.86C299.66 98.11 299.56 98.22 299.31 98.22H295.19Z" fill="white"/>
<path d="M329.8 74.19C329.83 73.96 330.04 73.8 330.27 73.83H334.78C335.01 73.8 335.22 73.96 335.25 74.19L343.5 97.86C343.57 98.11 343.5 98.22 343.25 98.22H338.59C338.36 98.24 338.16 98.08 338.12 97.86L336.72 93.63H328.19L326.83 97.9C326.79 98.13 326.59 98.28 326.36 98.26H321.67C321.41 98.26 321.34 98.15 321.41 97.9L329.8 74.19ZM329.66 89.11H335.29L332.53 80.57H332.42L329.66 89.11Z" fill="white"/>
</g>
<defs>
<clipPath id="clip0_226_36976">
<rect width="343.53" height="114.54" fill="white"/>
</clipPath>
</defs>
</svg>
