<svg width="1920" height="278" viewBox="0 0 1920 278" fill="none" xmlns="http://www.w3.org/2000/svg">
<g clip-path="url(#clip0_168_34400)">
<rect width="1920" height="278" fill="#D6322E"/>
<rect width="795.532" height="514.283" transform="translate(1374 155.317) rotate(-28.5912)" fill="#FFA9A6"/>
<circle cx="1423.06" cy="169.763" r="4.01784" transform="rotate(-28.5912 1423.06 169.763)" fill="#EA4335"/>
<circle cx="1458.33" cy="150.536" r="4.01784" transform="rotate(-28.5912 1458.33 150.536)" fill="#EA4335"/>
<circle cx="1493.61" cy="131.308" r="4.01784" transform="rotate(-28.5912 1493.61 131.308)" fill="#EA4335"/>
<circle cx="1528.89" cy="112.081" r="4.01784" transform="rotate(-28.5912 1528.89 112.081)" fill="#EA4335"/>
<circle cx="1564.17" cy="92.8527" r="4.01784" transform="rotate(-28.5912 1564.17 92.8527)" fill="#EA4335"/>
<circle cx="1599.45" cy="73.6251" r="4.01784" transform="rotate(-28.5912 1599.45 73.6251)" fill="#EA4335"/>
<circle cx="1634.73" cy="54.3976" r="4.01784" transform="rotate(-28.5912 1634.73 54.3976)" fill="#EA4335"/>
<circle cx="1670.01" cy="35.1701" r="4.01784" transform="rotate(-28.5912 1670.01 35.1701)" fill="#EA4335"/>
<circle cx="1705.29" cy="15.942" r="4.01784" transform="rotate(-28.5912 1705.29 15.942)" fill="#EA4335"/>
<circle cx="1740.57" cy="-3.2855" r="4.01784" transform="rotate(-28.5912 1740.57 -3.2855)" fill="#EA4335"/>
<circle cx="1442.28" cy="205.043" r="4.01784" transform="rotate(-28.5912 1442.28 205.043)" fill="#EA4335"/>
<circle cx="1477.56" cy="185.815" r="4.01784" transform="rotate(-28.5912 1477.56 185.815)" fill="#EA4335"/>
<circle cx="1512.84" cy="166.587" r="4.01784" transform="rotate(-28.5912 1512.84 166.587)" fill="#EA4335"/>
<circle cx="1548.12" cy="147.36" r="4.01784" transform="rotate(-28.5912 1548.12 147.36)" fill="#EA4335"/>
<circle cx="1583.4" cy="128.132" r="4.01784" transform="rotate(-28.5912 1583.4 128.132)" fill="#EA4335"/>
<circle cx="1618.68" cy="108.904" r="4.01784" transform="rotate(-28.5912 1618.68 108.904)" fill="#EA4335"/>
<circle cx="1653.96" cy="89.6769" r="4.01784" transform="rotate(-28.5912 1653.96 89.6769)" fill="#EA4335"/>
<circle cx="1689.24" cy="70.4489" r="4.01784" transform="rotate(-28.5912 1689.24 70.4489)" fill="#EA4335"/>
<circle cx="1724.51" cy="51.2213" r="4.01784" transform="rotate(-28.5912 1724.51 51.2213)" fill="#EA4335"/>
<circle cx="1759.79" cy="31.9938" r="4.01784" transform="rotate(-28.5912 1759.79 31.9938)" fill="#EA4335"/>
<circle cx="1795.07" cy="12.7663" r="4.01784" transform="rotate(-28.5912 1795.07 12.7663)" fill="#EA4335"/>
<circle cx="1461.51" cy="240.321" r="4.01784" transform="rotate(-28.5912 1461.51 240.321)" fill="#EA4335"/>
<circle cx="1496.79" cy="221.093" r="4.01784" transform="rotate(-28.5912 1496.79 221.093)" fill="#EA4335"/>
<circle cx="1532.07" cy="201.866" r="4.01784" transform="rotate(-28.5912 1532.07 201.866)" fill="#EA4335"/>
<circle cx="1567.35" cy="182.638" r="4.01784" transform="rotate(-28.5912 1567.35 182.638)" fill="#EA4335"/>
<circle cx="1602.63" cy="163.411" r="4.01784" transform="rotate(-28.5912 1602.63 163.411)" fill="#EA4335"/>
<circle cx="1637.91" cy="144.183" r="4.01784" transform="rotate(-28.5912 1637.91 144.183)" fill="#EA4335"/>
<circle cx="1673.18" cy="124.955" r="4.01784" transform="rotate(-28.5912 1673.18 124.955)" fill="#EA4335"/>
<circle cx="1708.46" cy="105.728" r="4.01784" transform="rotate(-28.5912 1708.46 105.728)" fill="#EA4335"/>
<circle cx="1743.74" cy="86.5001" r="4.01784" transform="rotate(-28.5912 1743.74 86.5001)" fill="#EA4335"/>
<circle cx="1779.02" cy="67.2726" r="4.01784" transform="rotate(-28.5912 1779.02 67.2726)" fill="#EA4335"/>
<circle cx="1814.3" cy="48.0451" r="4.01784" transform="rotate(-28.5912 1814.3 48.0451)" fill="#EA4335"/>
<circle cx="1849.58" cy="28.817" r="4.01784" transform="rotate(-28.5912 1849.58 28.817)" fill="#EA4335"/>
<circle cx="1884.86" cy="9.5895" r="4.01784" transform="rotate(-28.5912 1884.86 9.5895)" fill="#EA4335"/>
<circle cx="1480.74" cy="275.6" r="4.01784" transform="rotate(-28.5912 1480.74 275.6)" fill="#EA4335"/>
<circle cx="1516.02" cy="256.373" r="4.01784" transform="rotate(-28.5912 1516.02 256.373)" fill="#EA4335"/>
<circle cx="1551.3" cy="237.145" r="4.01784" transform="rotate(-28.5912 1551.3 237.145)" fill="#EA4335"/>
<circle cx="1586.58" cy="217.917" r="4.01784" transform="rotate(-28.5912 1586.58 217.917)" fill="#EA4335"/>
<circle cx="1621.85" cy="198.69" r="4.01784" transform="rotate(-28.5912 1621.85 198.69)" fill="#EA4335"/>
<circle cx="1657.13" cy="179.462" r="4.01784" transform="rotate(-28.5912 1657.13 179.462)" fill="#EA4335"/>
<circle cx="1692.41" cy="160.235" r="4.01784" transform="rotate(-28.5912 1692.41 160.235)" fill="#EA4335"/>
<circle cx="1727.69" cy="141.007" r="4.01784" transform="rotate(-28.5912 1727.69 141.007)" fill="#EA4335"/>
<circle cx="1762.97" cy="121.779" r="4.01784" transform="rotate(-28.5912 1762.97 121.779)" fill="#EA4335"/>
<circle cx="1798.25" cy="102.551" r="4.01784" transform="rotate(-28.5912 1798.25 102.551)" fill="#EA4335"/>
<circle cx="1833.53" cy="83.3239" r="4.01784" transform="rotate(-28.5912 1833.53 83.3239)" fill="#EA4335"/>
<circle cx="1868.81" cy="64.0963" r="4.01784" transform="rotate(-28.5912 1868.81 64.0963)" fill="#EA4335"/>
<circle cx="1904.09" cy="44.8683" r="4.01784" transform="rotate(-28.5912 1904.09 44.8683)" fill="#EA4335"/>
<circle cx="1570.52" cy="272.424" r="4.01784" transform="rotate(-28.5912 1570.52 272.424)" fill="#EA4335"/>
<circle cx="1605.8" cy="253.196" r="4.01784" transform="rotate(-28.5912 1605.8 253.196)" fill="#EA4335"/>
<circle cx="1641.08" cy="233.968" r="4.01784" transform="rotate(-28.5912 1641.08 233.968)" fill="#EA4335"/>
<circle cx="1676.36" cy="214.741" r="4.01784" transform="rotate(-28.5912 1676.36 214.741)" fill="#EA4335"/>
<circle cx="1711.64" cy="195.513" r="4.01784" transform="rotate(-28.5912 1711.64 195.513)" fill="#EA4335"/>
<circle cx="1746.92" cy="176.286" r="4.01784" transform="rotate(-28.5912 1746.92 176.286)" fill="#EA4335"/>
<circle cx="1782.2" cy="157.058" r="4.01784" transform="rotate(-28.5912 1782.2 157.058)" fill="#EA4335"/>
<circle cx="1817.48" cy="137.83" r="4.01784" transform="rotate(-28.5912 1817.48 137.83)" fill="#EA4335"/>
<circle cx="1852.76" cy="118.603" r="4.01784" transform="rotate(-28.5912 1852.76 118.603)" fill="#EA4335"/>
<circle cx="1888.03" cy="99.3751" r="4.01784" transform="rotate(-28.5912 1888.03 99.3751)" fill="#EA4335"/>
<circle cx="1923.31" cy="80.1476" r="4.01784" transform="rotate(-28.5912 1923.31 80.1476)" fill="#EA4335"/>
<circle cx="1660.31" cy="269.247" r="4.01784" transform="rotate(-28.5912 1660.31 269.247)" fill="#EA4335"/>
<circle cx="1695.59" cy="250.02" r="4.01784" transform="rotate(-28.5912 1695.59 250.02)" fill="#EA4335"/>
<circle cx="1730.87" cy="230.792" r="4.01784" transform="rotate(-28.5912 1730.87 230.792)" fill="#EA4335"/>
<circle cx="1766.15" cy="211.565" r="4.01784" transform="rotate(-28.5912 1766.15 211.565)" fill="#EA4335"/>
<circle cx="1801.43" cy="192.337" r="4.01784" transform="rotate(-28.5912 1801.43 192.337)" fill="#EA4335"/>
<circle cx="1836.7" cy="173.109" r="4.01784" transform="rotate(-28.5912 1836.7 173.109)" fill="#EA4335"/>
<circle cx="1871.98" cy="153.882" r="4.01784" transform="rotate(-28.5912 1871.98 153.882)" fill="#EA4335"/>
<circle cx="1907.26" cy="134.654" r="4.01784" transform="rotate(-28.5912 1907.26 134.654)" fill="#EA4335"/>
<circle cx="1750.1" cy="266.071" r="4.01784" transform="rotate(-28.5912 1750.1 266.071)" fill="#EA4335"/>
<circle cx="1785.37" cy="246.843" r="4.01784" transform="rotate(-28.5912 1785.37 246.843)" fill="#EA4335"/>
<circle cx="1820.65" cy="227.616" r="4.01784" transform="rotate(-28.5912 1820.65 227.616)" fill="#EA4335"/>
<circle cx="1855.93" cy="208.388" r="4.01784" transform="rotate(-28.5912 1855.93 208.388)" fill="#EA4335"/>
<circle cx="1891.21" cy="189.161" r="4.01784" transform="rotate(-28.5912 1891.21 189.161)" fill="#EA4335"/>
<circle cx="1804.6" cy="282.122" r="4.01784" transform="rotate(-28.5912 1804.6 282.122)" fill="#EA4335"/>
<circle cx="1839.88" cy="262.895" r="4.01784" transform="rotate(-28.5912 1839.88 262.895)" fill="#EA4335"/>
<circle cx="1875.16" cy="243.667" r="4.01784" transform="rotate(-28.5912 1875.16 243.667)" fill="#EA4335"/>
<circle cx="1910.44" cy="224.44" r="4.01784" transform="rotate(-28.5912 1910.44 224.44)" fill="#EA4335"/>
<circle cx="1894.39" cy="278.946" r="4.01784" transform="rotate(-28.5912 1894.39 278.946)" fill="#EA4335"/>
</g>
<defs>
<clipPath id="clip0_168_34400">
<rect width="1920" height="278" fill="white"/>
</clipPath>
</defs>
</svg>
